<?xml version="1.0" standalone="no"?>
<!DOCTYPE svg PUBLIC "-//W3C//DTD SVG 20010904//EN"
 "http://www.w3.org/TR/2001/REC-SVG-20010904/DTD/svg10.dtd">
<svg version="1.0" xmlns="http://www.w3.org/2000/svg"
 width="225.000000pt" height="225.000000pt" viewBox="0 0 225.000000 225.000000"
 preserveAspectRatio="xMidYMid meet">

<g transform="translate(0.000000,225.000000) scale(0.100000,-0.100000)"
fill="#000000" stroke="none">
<path d="M961 1905 c-161 -36 -303 -116 -413 -234 -177 -187 -253 -451 -203
-704 9 -48 16 -89 14 -90 -2 -1 -40 -20 -83 -42 -43 -22 -83 -47 -89 -55 -13
-22 61 -144 90 -148 15 -2 31 -27 61 -95 22 -51 52 -118 66 -149 l25 -57 78
27 78 27 -3 38 c-3 40 3 44 32 22 12 -9 42 -15 72 -15 36 0 71 -9 115 -30 109
-50 180 -65 324 -65 143 0 225 18 342 73 53 25 69 28 110 22 58 -9 71 -5 75
23 4 31 36 34 40 5 2 -16 11 -24 28 -26 55 -6 70 -13 70 -32 0 -25 102 -60
128 -44 14 9 148 380 151 420 1 7 -32 19 -71 29 -113 26 -130 34 -122 59 46
144 55 280 26 419 -60 290 -268 516 -557 607 -91 29 -289 37 -384 15z m-127
-139 c81 -34 100 -120 45 -214 -49 -86 -139 -140 -236 -141 -45 -1 -57 3 -87
30 -41 36 -54 83 -37 138 23 78 101 156 188 187 49 17 86 17 127 0z m564 -394
c84 -39 115 -166 60 -249 -46 -70 -152 -98 -225 -60 -111 59 -124 225 -22 298
57 40 117 44 187 11z m-328 -292 c7 -17 33 -48 57 -70 113 -99 274 -91 380 20
l38 39 60 -15 c109 -27 275 -87 275 -99 0 -6 -7 -32 -16 -58 -17 -51 -22 -53
-92 -37 -62 15 -82 1 -82 -55 0 -39 -3 -45 -21 -45 -11 0 -29 -4 -39 -10 -21
-11 -25 0 -36 93 l-7 57 -68 0 c-37 0 -71 -4 -74 -10 -3 -5 -30 -10 -60 -10
-51 0 -85 -16 -85 -41 0 -5 -12 -2 -26 8 -34 22 -109 22 -153 0 -49 -24 -57
-22 -112 27 -55 49 -55 49 -182 10 -116 -36 -117 -37 -117 -93 0 -42 -3 -50
-22 -54 -28 -8 -38 -1 -38 25 0 30 -28 71 -68 98 -29 21 -50 26 -118 29 l-83
3 -6 30 c-4 16 -3 34 2 39 15 15 248 87 351 109 99 21 214 36 288 39 37 1 43
-2 54 -29z m499 -290 c10 -66 10 -83 -2 -102 -38 -60 -27 -131 26 -172 25 -20
28 -26 15 -31 -8 -3 -31 -2 -49 2 -33 9 -34 11 -45 79 l-10 69 -16 -35 -15
-35 -24 48 -24 49 -10 -59 c-11 -62 -10 -61 -73 -47 -21 4 -23 9 -17 37 4 18
14 40 22 49 12 13 13 21 4 31 -8 10 -8 30 -1 73 19 110 16 104 64 104 l43 0 9
-47 10 -48 8 58 c8 56 9 57 41 57 l33 0 11 -80z m-679 23 l1 -48 22 25 c12 14
29 37 38 50 l16 24 36 -29 c19 -17 36 -34 36 -38 1 -5 -19 -32 -44 -60 -24
-28 -42 -54 -39 -58 3 -5 22 -14 44 -20 21 -6 47 -24 59 -40 12 -16 38 -33 61
-40 36 -11 40 -15 40 -46 0 -18 -5 -33 -10 -33 -6 0 -60 25 -120 55 -60 30
-112 55 -114 55 -3 0 -6 -28 -8 -62 -3 -63 -3 -63 -35 -66 -27 -3 -33 1 -39
21 -3 14 -1 34 5 45 16 30 13 104 -5 130 -8 12 -18 47 -21 78 -4 41 -9 54 -19
50 -9 -3 -14 2 -14 13 0 13 11 22 38 29 69 18 72 17 72 -35z m-333 15 c76 -46
75 -129 -3 -207 l-44 -43 21 -80 c11 -44 19 -81 17 -83 -2 -1 -18 -7 -36 -13
l-33 -11 -38 82 c-20 45 -52 117 -71 159 -30 66 -38 76 -55 72 -16 -4 -26 4
-44 36 -27 49 -25 52 55 85 80 33 181 34 231 3z m703 -13 c17 -9 30 -20 30
-26 0 -5 -21 -32 -46 -59 -45 -49 -43 -67 5 -34 22 16 24 15 50 -10 26 -27 26
-27 6 -43 -61 -47 -163 -58 -208 -23 -36 29 -52 81 -37 125 24 72 127 108 200
70z m590 -5 c22 -6 27 -16 39 -78 8 -40 18 -72 21 -72 4 0 13 26 20 58 7 31
14 60 16 63 4 8 72 -6 82 -16 7 -7 -109 -365 -120 -365 -3 0 -18 4 -32 10 -25
9 -26 12 -27 102 -1 101 -2 102 -19 16 -12 -59 -22 -68 -64 -52 -21 8 -21 48
0 65 42 35 56 112 29 159 -8 14 -14 40 -15 58 0 17 -4 32 -10 32 -5 0 -10 9
-10 20 0 20 14 20 90 0z m-121 -81 c31 -11 61 -52 61 -84 0 -33 -33 -85 -65
-105 -72 -45 -154 -9 -155 68 0 47 27 89 75 112 47 23 43 23 84 9z m-928 -48
c35 -35 38 -81 9 -129 -23 -37 -75 -72 -107 -72 -77 0 -125 79 -89 148 43 83
132 108 187 53z m219 19 c0 -5 -5 -10 -11 -10 -5 0 -7 5 -4 10 3 6 8 10 11 10
2 0 4 -4 4 -10z m233 -164 c-5 -27 8 -32 107 -43 44 -4 67 -12 87 -30 32 -30
28 -33 -82 -69 -161 -51 -320 -52 -478 -2 -66 20 -75 37 -20 38 12 0 34 5 48
12 19 9 25 19 25 45 0 18 2 33 5 33 3 0 51 -23 107 -51 88 -44 104 -49 126
-40 22 11 24 16 20 62 -5 45 -3 52 16 59 35 14 43 11 39 -14z"/>
<path d="M1243 1330 c-80 -48 -83 -159 -7 -219 35 -27 107 -28 150 -2 32 20
64 74 64 111 0 37 -32 91 -64 111 -40 24 -102 24 -143 -1z m145 -15 c64 -54
67 -131 6 -184 -81 -71 -204 -16 -204 91 0 38 28 86 62 104 39 22 103 17 136
-11z"/>
<path d="M466 741 c-3 -4 2 -34 11 -66 l17 -58 28 32 c32 35 35 62 12 85 -17
17 -59 22 -68 7z"/>
<path d="M1137 762 c-19 -21 -22 -50 -7 -72 9 -12 17 -7 50 30 28 31 36 47 27
52 -21 13 -53 9 -70 -10z m33 -21 c0 -12 -20 -25 -27 -18 -7 7 6 27 18 27 5 0
9 -4 9 -9z"/>
<path d="M1642 683 c-14 -26 -7 -50 20 -64 24 -13 55 -3 69 22 10 19 9 19 -10
9 -27 -14 -58 2 -63 32 l-3 23 -13 -22z"/>
<path d="M687 663 c-4 -3 -7 -19 -7 -35 0 -31 28 -49 62 -40 20 5 43 40 34 50
-3 3 -6 0 -6 -7 0 -21 -54 -8 -66 16 -6 13 -14 20 -17 16z"/>
</g>
</svg>
